<?xml version="1.0" encoding="UTF-8" standalone="no"?>
<!DOCTYPE svg PUBLIC "-//W3C//DTD SVG 1.1//EN"
 "http://www.w3.org/Graphics/SVG/1.1/DTD/svg11.dtd">
<!-- Generated by graphviz version 2.40.1 (20161225.0304)
 -->
<!-- Title: dependencies Pages: 1 -->
<svg width="1721pt" height="284pt"
 viewBox="0.00 0.00 1721.00 284.00" xmlns="http://www.w3.org/2000/svg" xmlns:xlink="http://www.w3.org/1999/xlink">
<g id="graph0" class="graph" transform="scale(1 1) rotate(0) translate(4 280)">
<title>dependencies</title>
<polygon fill="#ffffff" stroke="transparent" points="-4,4 -4,-280 1717,-280 1717,4 -4,4"/>
<text text-anchor="start" x="835.5091" y="-42.4" font-family="sans-serif" font-weight="bold" font-size="14.00" fill="#000000">Legend</text>
<polygon fill="#ffffb3" stroke="transparent" points="622.5,-10 622.5,-30 642.5,-30 642.5,-10 622.5,-10"/>
<text text-anchor="start" x="646.129" y="-15.4" font-family="sans-serif" font-size="14.00" fill="#000000"> &#160;Declarations</text>
<polygon fill="#8dd3c7" stroke="transparent" points="735.5,-10 735.5,-30 755.5,-30 755.5,-10 735.5,-10"/>
<text text-anchor="start" x="759.2251" y="-15.4" font-family="sans-serif" font-size="14.00" fill="#000000"> &#160;Module</text>
<polygon fill="#80b1d3" stroke="transparent" points="821.5,-10 821.5,-30 841.5,-30 841.5,-10 821.5,-10"/>
<text text-anchor="start" x="845.2812" y="-15.4" font-family="sans-serif" font-size="14.00" fill="#000000"> &#160;Bootstrap</text>
<polygon fill="#fdb462" stroke="transparent" points="918.5,-10 918.5,-30 938.5,-30 938.5,-10 918.5,-10"/>
<text text-anchor="start" x="942.1732" y="-15.4" font-family="sans-serif" font-size="14.00" fill="#000000"> &#160;Providers</text>
<polygon fill="#fb8072" stroke="transparent" points="1014.5,-10 1014.5,-30 1034.5,-30 1034.5,-10 1014.5,-10"/>
<text text-anchor="start" x="1038.2258" y="-15.4" font-family="sans-serif" font-size="14.00" fill="#000000"> &#160;Exports</text>
<g id="clust1" class="cluster">
<title>cluster_AppModule</title>
<polygon fill="none" stroke="#000000" stroke-dasharray="1,5" points="8,-70 8,-268 1705,-268 1705,-70 8,-70"/>
</g>
<g id="clust2" class="cluster">
<title>cluster_AppModule_declarations</title>
<polygon fill="none" stroke="#000000" points="1084,-78 1084,-130 1697,-130 1697,-78 1084,-78"/>
</g>
<g id="clust7" class="cluster">
<title>cluster_AppModule_imports</title>
<polygon fill="none" stroke="#000000" points="16,-78 16,-130 1076,-130 1076,-78 16,-78"/>
</g>
<g id="clust9" class="cluster">
<title>cluster_AppModule_bootstrap</title>
<polygon fill="none" stroke="#000000" points="834,-208 834,-260 958,-260 958,-208 834,-208"/>
</g>
<!-- AppComponent -->
<g id="node1" class="node">
<title>AppComponent</title>
<polygon fill="#ffffb3" stroke="#000000" points="1688.9399,-122 1583.0601,-122 1583.0601,-86 1688.9399,-86 1688.9399,-122"/>
<text text-anchor="middle" x="1636" y="-99.8" font-family="Times,serif" font-size="14.00" fill="#000000">AppComponent</text>
</g>
<!-- AppModule -->
<g id="node5" class="node">
<title>AppModule</title>
<polygon fill="#8dd3c7" stroke="#000000" points="937.6571,-187 934.6571,-191 913.6571,-191 910.6571,-187 854.3429,-187 854.3429,-151 937.6571,-151 937.6571,-187"/>
<text text-anchor="middle" x="896" y="-164.8" font-family="Times,serif" font-size="14.00" fill="#000000">AppModule</text>
</g>
<!-- AppComponent&#45;&gt;AppModule -->
<g id="edge1" class="edge">
<title>AppComponent&#45;&gt;AppModule</title>
<path fill="none" stroke="#000000" d="M1636,-122.2479C1636,-145.0179 1636,-181 1636,-181 1636,-181 947.9059,-181 947.9059,-181"/>
<polygon fill="#000000" stroke="#000000" points="947.9059,-177.5001 937.9059,-181 947.9058,-184.5001 947.9059,-177.5001"/>
</g>
<!-- HomeComponent -->
<g id="node2" class="node">
<title>HomeComponent</title>
<polygon fill="#ffffb3" stroke="#000000" points="1565.5451,-122 1450.4549,-122 1450.4549,-86 1565.5451,-86 1565.5451,-122"/>
<text text-anchor="middle" x="1508" y="-99.8" font-family="Times,serif" font-size="14.00" fill="#000000">HomeComponent</text>
</g>
<!-- HomeComponent&#45;&gt;AppModule -->
<g id="edge2" class="edge">
<title>HomeComponent&#45;&gt;AppModule</title>
<path fill="none" stroke="#000000" d="M1508,-122.2843C1508,-143.3211 1508,-175 1508,-175 1508,-175 948.0652,-175 948.0652,-175"/>
<polygon fill="#000000" stroke="#000000" points="948.0653,-171.5001 938.0652,-175 948.0652,-178.5001 948.0653,-171.5001"/>
</g>
<!-- FileDropComponent -->
<g id="node3" class="node">
<title>FileDropComponent</title>
<polygon fill="#ffffb3" stroke="#000000" points="1431.8781,-122 1300.1219,-122 1300.1219,-86 1431.8781,-86 1431.8781,-122"/>
<text text-anchor="middle" x="1366" y="-99.8" font-family="Times,serif" font-size="14.00" fill="#000000">FileDropComponent</text>
</g>
<!-- FileDropComponent&#45;&gt;AppModule -->
<g id="edge3" class="edge">
<title>FileDropComponent&#45;&gt;AppModule</title>
<path fill="none" stroke="#000000" d="M1366,-122.1061C1366,-141.3391 1366,-169 1366,-169 1366,-169 947.7094,-169 947.7094,-169"/>
<polygon fill="#000000" stroke="#000000" points="947.7094,-165.5001 937.7094,-169 947.7093,-172.5001 947.7094,-165.5001"/>
</g>
<!-- ThumbnailChooserComponent -->
<g id="node4" class="node">
<title>ThumbnailChooserComponent</title>
<polygon fill="#ffffb3" stroke="#000000" points="1281.9283,-122 1092.0717,-122 1092.0717,-86 1281.9283,-86 1281.9283,-122"/>
<text text-anchor="middle" x="1187" y="-99.8" font-family="Times,serif" font-size="14.00" fill="#000000">ThumbnailChooserComponent</text>
</g>
<!-- ThumbnailChooserComponent&#45;&gt;AppModule -->
<g id="edge4" class="edge">
<title>ThumbnailChooserComponent&#45;&gt;AppModule</title>
<path fill="none" stroke="#000000" d="M1187,-122.0225C1187,-139.3734 1187,-163 1187,-163 1187,-163 947.6932,-163 947.6932,-163"/>
<polygon fill="#000000" stroke="#000000" points="947.6932,-159.5001 937.6932,-163 947.6932,-166.5001 947.6932,-159.5001"/>
</g>
<!-- AppComponent  -->
<g id="node13" class="node">
<title>AppComponent </title>
<polygon fill="#80b1d3" stroke="#000000" points="950.439,-252 841.561,-252 841.561,-216 950.439,-216 950.439,-252"/>
<text text-anchor="middle" x="896" y="-229.8" font-family="Times,serif" font-size="14.00" fill="#000000">AppComponent </text>
</g>
<!-- AppModule&#45;&gt;AppComponent  -->
<g id="edge12" class="edge">
<title>AppModule&#45;&gt;AppComponent </title>
<path fill="none" stroke="#000000" stroke-dasharray="1,5" d="M896,-187.1061C896,-187.1061 896,-205.991 896,-205.991"/>
<polygon fill="#000000" stroke="#000000" points="892.5001,-205.9909 896,-215.991 899.5001,-205.991 892.5001,-205.9909"/>
</g>
<!-- BrowserModule -->
<g id="node6" class="node">
<title>BrowserModule</title>
<polygon fill="#8dd3c7" stroke="#000000" points="1068.4734,-122 1065.4734,-126 1044.4734,-126 1041.4734,-122 961.5266,-122 961.5266,-86 1068.4734,-86 1068.4734,-122"/>
<text text-anchor="middle" x="1015" y="-99.8" font-family="Times,serif" font-size="14.00" fill="#000000">BrowserModule</text>
</g>
<!-- BrowserModule&#45;&gt;AppModule -->
<g id="edge5" class="edge">
<title>BrowserModule&#45;&gt;AppModule</title>
<path fill="none" stroke="#000000" d="M1015,-122.2396C1015,-137.5706 1015,-157 1015,-157 1015,-157 947.9549,-157 947.9549,-157"/>
<polygon fill="#000000" stroke="#000000" points="947.955,-153.5001 937.9549,-157 947.9549,-160.5001 947.955,-153.5001"/>
</g>
<!-- FormsModule -->
<g id="node7" class="node">
<title>FormsModule</title>
<polygon fill="#8dd3c7" stroke="#000000" points="943.8288,-122 940.8288,-126 919.8288,-126 916.8288,-122 848.1712,-122 848.1712,-86 943.8288,-86 943.8288,-122"/>
<text text-anchor="middle" x="896" y="-99.8" font-family="Times,serif" font-size="14.00" fill="#000000">FormsModule</text>
</g>
<!-- FormsModule&#45;&gt;AppModule -->
<g id="edge6" class="edge">
<title>FormsModule&#45;&gt;AppModule</title>
<path fill="none" stroke="#000000" d="M896,-122.1061C896,-122.1061 896,-140.991 896,-140.991"/>
<polygon fill="#000000" stroke="#000000" points="892.5001,-140.9909 896,-150.991 899.5001,-140.991 892.5001,-140.9909"/>
</g>
<!-- ReactiveFormsModule -->
<g id="node8" class="node">
<title>ReactiveFormsModule</title>
<polygon fill="#8dd3c7" stroke="#000000" points="830.3047,-122 827.3047,-126 806.3047,-126 803.3047,-122 685.6953,-122 685.6953,-86 830.3047,-86 830.3047,-122"/>
<text text-anchor="middle" x="758" y="-99.8" font-family="Times,serif" font-size="14.00" fill="#000000">ReactiveFormsModule</text>
</g>
<!-- ReactiveFormsModule&#45;&gt;AppModule -->
<g id="edge7" class="edge">
<title>ReactiveFormsModule&#45;&gt;AppModule</title>
<path fill="none" stroke="#000000" d="M758,-122.2396C758,-137.5706 758,-157 758,-157 758,-157 844.221,-157 844.221,-157"/>
<polygon fill="#000000" stroke="#000000" points="844.221,-160.5001 854.221,-157 844.2209,-153.5001 844.221,-160.5001"/>
</g>
<!-- HttpModule -->
<g id="node9" class="node">
<title>HttpModule</title>
<polygon fill="#8dd3c7" stroke="#000000" points="668.4387,-122 665.4387,-126 644.4387,-126 641.4387,-122 583.5613,-122 583.5613,-86 668.4387,-86 668.4387,-122"/>
<text text-anchor="middle" x="626" y="-99.8" font-family="Times,serif" font-size="14.00" fill="#000000">HttpModule</text>
</g>
<!-- HttpModule&#45;&gt;AppModule -->
<g id="edge8" class="edge">
<title>HttpModule&#45;&gt;AppModule</title>
<path fill="none" stroke="#000000" d="M626,-122.0225C626,-139.3734 626,-163 626,-163 626,-163 844.1087,-163 844.1087,-163"/>
<polygon fill="#000000" stroke="#000000" points="844.1088,-166.5001 854.1087,-163 844.1087,-159.5001 844.1088,-166.5001"/>
</g>
<!-- ClarityModule.forRoot() -->
<g id="node10" class="node">
<title>ClarityModule.forRoot()</title>
<polygon fill="#8dd3c7" stroke="#000000" points="565.3031,-122 562.3031,-126 541.3031,-126 538.3031,-122 410.6969,-122 410.6969,-86 565.3031,-86 565.3031,-122"/>
<text text-anchor="middle" x="488" y="-99.8" font-family="Times,serif" font-size="14.00" fill="#000000">ClarityModule.forRoot()</text>
</g>
<!-- ClarityModule.forRoot()&#45;&gt;AppModule -->
<g id="edge9" class="edge">
<title>ClarityModule.forRoot()&#45;&gt;AppModule</title>
<path fill="none" stroke="#000000" d="M488,-122.1061C488,-141.3391 488,-169 488,-169 488,-169 844.2542,-169 844.2542,-169"/>
<polygon fill="#000000" stroke="#000000" points="844.2543,-172.5001 854.2542,-169 844.2542,-165.5001 844.2543,-172.5001"/>
</g>
<!-- BrowserAnimationsModule -->
<g id="node11" class="node">
<title>BrowserAnimationsModule</title>
<polygon fill="#8dd3c7" stroke="#000000" points="392.3019,-122 389.3019,-126 368.3019,-126 365.3019,-122 219.6981,-122 219.6981,-86 392.3019,-86 392.3019,-122"/>
<text text-anchor="middle" x="306" y="-99.8" font-family="Times,serif" font-size="14.00" fill="#000000">BrowserAnimationsModule</text>
</g>
<!-- BrowserAnimationsModule&#45;&gt;AppModule -->
<g id="edge10" class="edge">
<title>BrowserAnimationsModule&#45;&gt;AppModule</title>
<path fill="none" stroke="#000000" d="M306,-122.2843C306,-143.3211 306,-175 306,-175 306,-175 844.0416,-175 844.0416,-175"/>
<polygon fill="#000000" stroke="#000000" points="844.0417,-178.5001 854.0416,-175 844.0416,-171.5001 844.0417,-178.5001"/>
</g>
<!-- RouterModule.forRoot(args) -->
<g id="node12" class="node">
<title>RouterModule.forRoot(args)</title>
<polygon fill="#8dd3c7" stroke="#000000" points="201.8419,-122 198.8419,-126 177.8419,-126 174.8419,-122 24.1581,-122 24.1581,-86 201.8419,-86 201.8419,-122"/>
<text text-anchor="middle" x="113" y="-99.8" font-family="Times,serif" font-size="14.00" fill="#000000">RouterModule.forRoot(args)</text>
</g>
<!-- RouterModule.forRoot(args)&#45;&gt;AppModule -->
<g id="edge11" class="edge">
<title>RouterModule.forRoot(args)&#45;&gt;AppModule</title>
<path fill="none" stroke="#000000" d="M113,-122.2479C113,-145.0179 113,-181 113,-181 113,-181 844.1793,-181 844.1793,-181"/>
<polygon fill="#000000" stroke="#000000" points="844.1794,-184.5001 854.1793,-181 844.1793,-177.5001 844.1794,-184.5001"/>
</g>
</g>
</svg>
