<?xml version="1.0" encoding="UTF-8" standalone="no"?>
<!DOCTYPE svg PUBLIC "-//W3C//DTD SVG 1.1//EN"
 "http://www.w3.org/Graphics/SVG/1.1/DTD/svg11.dtd">
<!-- Generated by graphviz version 2.40.1 (20161225.0304)
 -->
<!-- Title: dependencies Pages: 1 -->
<svg width="1994pt" height="284pt"
 viewBox="0.00 0.00 1994.00 284.00" xmlns="http://www.w3.org/2000/svg" xmlns:xlink="http://www.w3.org/1999/xlink">
<g id="graph0" class="graph" transform="scale(1 1) rotate(0) translate(4 280)">
<title>dependencies</title>
<polygon fill="#ffffff" stroke="transparent" points="-4,4 -4,-280 1990,-280 1990,4 -4,4"/>
<text text-anchor="start" x="972.0091" y="-42.4" font-family="sans-serif" font-weight="bold" font-size="14.00" fill="#000000">Legend</text>
<polygon fill="#ffffb3" stroke="transparent" points="759,-10 759,-30 779,-30 779,-10 759,-10"/>
<text text-anchor="start" x="782.629" y="-15.4" font-family="sans-serif" font-size="14.00" fill="#000000"> &#160;Declarations</text>
<polygon fill="#8dd3c7" stroke="transparent" points="872,-10 872,-30 892,-30 892,-10 872,-10"/>
<text text-anchor="start" x="895.7251" y="-15.4" font-family="sans-serif" font-size="14.00" fill="#000000"> &#160;Module</text>
<polygon fill="#80b1d3" stroke="transparent" points="958,-10 958,-30 978,-30 978,-10 958,-10"/>
<text text-anchor="start" x="981.7812" y="-15.4" font-family="sans-serif" font-size="14.00" fill="#000000"> &#160;Bootstrap</text>
<polygon fill="#fdb462" stroke="transparent" points="1055,-10 1055,-30 1075,-30 1075,-10 1055,-10"/>
<text text-anchor="start" x="1078.6732" y="-15.4" font-family="sans-serif" font-size="14.00" fill="#000000"> &#160;Providers</text>
<polygon fill="#fb8072" stroke="transparent" points="1151,-10 1151,-30 1171,-30 1171,-10 1151,-10"/>
<text text-anchor="start" x="1174.7258" y="-15.4" font-family="sans-serif" font-size="14.00" fill="#000000"> &#160;Exports</text>
<g id="clust1" class="cluster">
<title>cluster_AppModule</title>
<polygon fill="none" stroke="#000000" stroke-dasharray="1,5" points="8,-70 8,-268 1978,-268 1978,-70 8,-70"/>
</g>
<g id="clust2" class="cluster">
<title>cluster_AppModule_declarations</title>
<polygon fill="none" stroke="#000000" points="1084,-78 1084,-130 1970,-130 1970,-78 1084,-78"/>
</g>
<g id="clust7" class="cluster">
<title>cluster_AppModule_imports</title>
<polygon fill="none" stroke="#000000" points="16,-78 16,-130 1076,-130 1076,-78 16,-78"/>
</g>
<g id="clust9" class="cluster">
<title>cluster_AppModule_bootstrap</title>
<polygon fill="none" stroke="#000000" points="752,-208 752,-260 1028,-260 1028,-208 752,-208"/>
</g>
<!-- AppComponent -->
<g id="node1" class="node">
<title>AppComponent</title>
<polygon fill="#ffffb3" stroke="#000000" points="1961.9399,-122 1856.0601,-122 1856.0601,-86 1961.9399,-86 1961.9399,-122"/>
<text text-anchor="middle" x="1909" y="-99.8" font-family="Times,serif" font-size="14.00" fill="#000000">AppComponent</text>
</g>
<!-- AppModule -->
<g id="node5" class="node">
<title>AppModule</title>
<polygon fill="#8dd3c7" stroke="#000000" points="937.6571,-187 934.6571,-191 913.6571,-191 910.6571,-187 854.3429,-187 854.3429,-151 937.6571,-151 937.6571,-187"/>
<text text-anchor="middle" x="896" y="-164.8" font-family="Times,serif" font-size="14.00" fill="#000000">AppModule</text>
</g>
<!-- AppComponent&#45;&gt;AppModule -->
<g id="edge1" class="edge">
<title>AppComponent&#45;&gt;AppModule</title>
<path fill="none" stroke="#000000" d="M1909,-122.3228C1909,-145.6602 1909,-183 1909,-183 1909,-183 947.918,-183 947.918,-183"/>
<polygon fill="#000000" stroke="#000000" points="947.918,-179.5001 937.918,-183 947.9179,-186.5001 947.918,-179.5001"/>
</g>
<!-- HomeComponent -->
<g id="node2" class="node">
<title>HomeComponent</title>
<polygon fill="#ffffb3" stroke="#000000" points="1838.5451,-122 1723.4549,-122 1723.4549,-86 1838.5451,-86 1838.5451,-122"/>
<text text-anchor="middle" x="1781" y="-99.8" font-family="Times,serif" font-size="14.00" fill="#000000">HomeComponent</text>
</g>
<!-- HomeComponent&#45;&gt;AppModule -->
<g id="edge2" class="edge">
<title>HomeComponent&#45;&gt;AppModule</title>
<path fill="none" stroke="#000000" d="M1781,-122.1554C1781,-144.3519 1781,-179 1781,-179 1781,-179 947.7937,-179 947.7937,-179"/>
<polygon fill="#000000" stroke="#000000" points="947.7938,-175.5001 937.7937,-179 947.7937,-182.5001 947.7938,-175.5001"/>
</g>
<!-- FileDropComponent -->
<g id="node3" class="node">
<title>FileDropComponent</title>
<polygon fill="#ffffb3" stroke="#000000" points="1704.8781,-122 1573.1219,-122 1573.1219,-86 1704.8781,-86 1704.8781,-122"/>
<text text-anchor="middle" x="1639" y="-99.8" font-family="Times,serif" font-size="14.00" fill="#000000">FileDropComponent</text>
</g>
<!-- FileDropComponent&#45;&gt;AppModule -->
<g id="edge3" class="edge">
<title>FileDropComponent&#45;&gt;AppModule</title>
<path fill="none" stroke="#000000" d="M1639,-122.2843C1639,-143.3211 1639,-175 1639,-175 1639,-175 947.807,-175 947.807,-175"/>
<polygon fill="#000000" stroke="#000000" points="947.807,-171.5001 937.807,-175 947.807,-178.5001 947.807,-171.5001"/>
</g>
<!-- ThumbnailChooserComponent -->
<g id="node4" class="node">
<title>ThumbnailChooserComponent</title>
<polygon fill="#ffffb3" stroke="#000000" points="1554.9283,-122 1365.0717,-122 1365.0717,-86 1554.9283,-86 1554.9283,-122"/>
<text text-anchor="middle" x="1460" y="-99.8" font-family="Times,serif" font-size="14.00" fill="#000000">ThumbnailChooserComponent</text>
</g>
<!-- ThumbnailChooserComponent&#45;&gt;AppModule -->
<g id="edge4" class="edge">
<title>ThumbnailChooserComponent&#45;&gt;AppModule</title>
<path fill="none" stroke="#000000" d="M1460,-122.308C1460,-142.1455 1460,-171 1460,-171 1460,-171 947.9309,-171 947.9309,-171"/>
<polygon fill="#000000" stroke="#000000" points="947.9309,-167.5001 937.9309,-171 947.9309,-174.5001 947.9309,-167.5001"/>
</g>
<!-- AppComponent  -->
<g id="node13" class="node">
<title>AppComponent </title>
<polygon fill="#80b1d3" stroke="#000000" points="1020.439,-252 911.561,-252 911.561,-216 1020.439,-216 1020.439,-252"/>
<text text-anchor="middle" x="966" y="-229.8" font-family="Times,serif" font-size="14.00" fill="#000000">AppComponent </text>
</g>
<!-- AppModule&#45;&gt;AppComponent  -->
<g id="edge12" class="edge">
<title>AppModule&#45;&gt;AppComponent </title>
<path fill="none" stroke="#000000" stroke-dasharray="1,5" d="M924.6794,-187.1061C924.6794,-187.1061 924.6794,-205.991 924.6794,-205.991"/>
<polygon fill="#000000" stroke="#000000" points="921.1794,-205.9909 924.6794,-215.991 928.1794,-205.991 921.1794,-205.9909"/>
</g>
<!-- WrapperComponent  -->
<g id="node16" class="node">
<title>WrapperComponent </title>
<polygon fill="#80b1d3" stroke="#000000" points="893.7976,-252 760.2024,-252 760.2024,-216 893.7976,-216 893.7976,-252"/>
<text text-anchor="middle" x="827" y="-229.8" font-family="Times,serif" font-size="14.00" fill="#000000">WrapperComponent </text>
</g>
<!-- AppModule&#45;&gt;WrapperComponent  -->
<g id="edge20" class="edge">
<title>AppModule&#45;&gt;WrapperComponent </title>
<path fill="none" stroke="#000000" stroke-dasharray="1,5" d="M874.0352,-187.1061C874.0352,-187.1061 874.0352,-205.991 874.0352,-205.991"/>
<polygon fill="#000000" stroke="#000000" points="870.5353,-205.9909 874.0352,-215.991 877.5353,-205.991 870.5353,-205.9909"/>
</g>
<!-- BrowserModule -->
<g id="node6" class="node">
<title>BrowserModule</title>
<polygon fill="#8dd3c7" stroke="#000000" points="1068.4734,-122 1065.4734,-126 1044.4734,-126 1041.4734,-122 961.5266,-122 961.5266,-86 1068.4734,-86 1068.4734,-122"/>
<text text-anchor="middle" x="1015" y="-99.8" font-family="Times,serif" font-size="14.00" fill="#000000">BrowserModule</text>
</g>
<!-- BrowserModule&#45;&gt;AppModule -->
<g id="edge5" class="edge">
<title>BrowserModule&#45;&gt;AppModule</title>
<path fill="none" stroke="#000000" d="M1000.8174,-122.0091C1000.8174,-138.0494 1000.8174,-159 1000.8174,-159 1000.8174,-159 947.7278,-159 947.7278,-159"/>
<polygon fill="#000000" stroke="#000000" points="947.7278,-155.5001 937.7278,-159 947.7278,-162.5001 947.7278,-155.5001"/>
</g>
<!-- BrowserModule&#45;&gt;AppModule -->
<g id="edge15" class="edge">
<title>BrowserModule&#45;&gt;AppModule</title>
<path fill="none" stroke="#000000" d="M981.1654,-122.1243C981.1654,-136.7832 981.1654,-155 981.1654,-155 981.1654,-155 948.0837,-155 948.0837,-155"/>
<polygon fill="#000000" stroke="#000000" points="948.0837,-151.5001 938.0837,-155 948.0836,-158.5001 948.0837,-151.5001"/>
</g>
<!-- FormsModule -->
<g id="node7" class="node">
<title>FormsModule</title>
<polygon fill="#8dd3c7" stroke="#000000" points="943.8288,-122 940.8288,-126 919.8288,-126 916.8288,-122 848.1712,-122 848.1712,-86 943.8288,-86 943.8288,-122"/>
<text text-anchor="middle" x="896" y="-99.8" font-family="Times,serif" font-size="14.00" fill="#000000">FormsModule</text>
</g>
<!-- FormsModule&#45;&gt;AppModule -->
<g id="edge6" class="edge">
<title>FormsModule&#45;&gt;AppModule</title>
<path fill="none" stroke="#000000" d="M882.0573,-122.1061C882.0573,-122.1061 882.0573,-140.991 882.0573,-140.991"/>
<polygon fill="#000000" stroke="#000000" points="878.5574,-140.9909 882.0573,-150.991 885.5574,-140.991 878.5574,-140.9909"/>
</g>
<!-- FormsModule&#45;&gt;AppModule -->
<g id="edge16" class="edge">
<title>FormsModule&#45;&gt;AppModule</title>
<path fill="none" stroke="#000000" d="M909.9427,-122.1061C909.9427,-122.1061 909.9427,-140.991 909.9427,-140.991"/>
<polygon fill="#000000" stroke="#000000" points="906.4428,-140.9909 909.9427,-150.991 913.4428,-140.991 906.4428,-140.9909"/>
</g>
<!-- ReactiveFormsModule -->
<g id="node8" class="node">
<title>ReactiveFormsModule</title>
<polygon fill="#8dd3c7" stroke="#000000" points="830.3047,-122 827.3047,-126 806.3047,-126 803.3047,-122 685.6953,-122 685.6953,-86 830.3047,-86 830.3047,-122"/>
<text text-anchor="middle" x="758" y="-99.8" font-family="Times,serif" font-size="14.00" fill="#000000">ReactiveFormsModule</text>
</g>
<!-- ReactiveFormsModule&#45;&gt;AppModule -->
<g id="edge7" class="edge">
<title>ReactiveFormsModule&#45;&gt;AppModule</title>
<path fill="none" stroke="#000000" d="M783.4516,-122.0091C783.4516,-138.0494 783.4516,-159 783.4516,-159 783.4516,-159 844.0911,-159 844.0911,-159"/>
<polygon fill="#000000" stroke="#000000" points="844.0912,-162.5001 854.0911,-159 844.0911,-155.5001 844.0912,-162.5001"/>
</g>
<!-- ReactiveFormsModule&#45;&gt;AppModule -->
<g id="edge17" class="edge">
<title>ReactiveFormsModule&#45;&gt;AppModule</title>
<path fill="none" stroke="#000000" d="M806.8019,-122.1243C806.8019,-136.7832 806.8019,-155 806.8019,-155 806.8019,-155 844.2737,-155 844.2737,-155"/>
<polygon fill="#000000" stroke="#000000" points="844.2738,-158.5001 854.2737,-155 844.2737,-151.5001 844.2738,-158.5001"/>
</g>
<!-- HttpModule -->
<g id="node9" class="node">
<title>HttpModule</title>
<polygon fill="#8dd3c7" stroke="#000000" points="668.4387,-122 665.4387,-126 644.4387,-126 641.4387,-122 583.5613,-122 583.5613,-86 668.4387,-86 668.4387,-122"/>
<text text-anchor="middle" x="626" y="-99.8" font-family="Times,serif" font-size="14.00" fill="#000000">HttpModule</text>
</g>
<!-- HttpModule&#45;&gt;AppModule -->
<g id="edge8" class="edge">
<title>HttpModule&#45;&gt;AppModule</title>
<path fill="none" stroke="#000000" d="M611.9271,-122.2222C611.9271,-140.8285 611.9271,-167 611.9271,-167 611.9271,-167 844.0841,-167 844.0841,-167"/>
<polygon fill="#000000" stroke="#000000" points="844.0841,-170.5001 854.0841,-167 844.084,-163.5001 844.0841,-170.5001"/>
</g>
<!-- HttpModule&#45;&gt;AppModule -->
<g id="edge18" class="edge">
<title>HttpModule&#45;&gt;AppModule</title>
<path fill="none" stroke="#000000" d="M640.0729,-122.0225C640.0729,-139.3734 640.0729,-163 640.0729,-163 640.0729,-163 844.3113,-163 844.3113,-163"/>
<polygon fill="#000000" stroke="#000000" points="844.3113,-166.5001 854.3113,-163 844.3113,-159.5001 844.3113,-166.5001"/>
</g>
<!-- ClarityModule.forRoot() -->
<g id="node10" class="node">
<title>ClarityModule.forRoot()</title>
<polygon fill="#8dd3c7" stroke="#000000" points="565.3031,-122 562.3031,-126 541.3031,-126 538.3031,-122 410.6969,-122 410.6969,-86 565.3031,-86 565.3031,-122"/>
<text text-anchor="middle" x="488" y="-99.8" font-family="Times,serif" font-size="14.00" fill="#000000">ClarityModule.forRoot()</text>
</g>
<!-- ClarityModule.forRoot()&#45;&gt;AppModule -->
<g id="edge9" class="edge">
<title>ClarityModule.forRoot()&#45;&gt;AppModule</title>
<path fill="none" stroke="#000000" d="M488,-122.308C488,-142.1455 488,-171 488,-171 488,-171 844.2542,-171 844.2542,-171"/>
<polygon fill="#000000" stroke="#000000" points="844.2543,-174.5001 854.2542,-171 844.2542,-167.5001 844.2543,-174.5001"/>
</g>
<!-- BrowserAnimationsModule -->
<g id="node11" class="node">
<title>BrowserAnimationsModule</title>
<polygon fill="#8dd3c7" stroke="#000000" points="392.3019,-122 389.3019,-126 368.3019,-126 365.3019,-122 219.6981,-122 219.6981,-86 392.3019,-86 392.3019,-122"/>
<text text-anchor="middle" x="306" y="-99.8" font-family="Times,serif" font-size="14.00" fill="#000000">BrowserAnimationsModule</text>
</g>
<!-- BrowserAnimationsModule&#45;&gt;AppModule -->
<g id="edge10" class="edge">
<title>BrowserAnimationsModule&#45;&gt;AppModule</title>
<path fill="none" stroke="#000000" d="M334.7169,-122.2843C334.7169,-143.3211 334.7169,-175 334.7169,-175 334.7169,-175 844.2711,-175 844.2711,-175"/>
<polygon fill="#000000" stroke="#000000" points="844.2711,-178.5001 854.2711,-175 844.2711,-171.5001 844.2711,-178.5001"/>
</g>
<!-- BrowserAnimationsModule&#45;&gt;AppModule -->
<g id="edge19" class="edge">
<title>BrowserAnimationsModule&#45;&gt;AppModule</title>
<path fill="none" stroke="#000000" d="M277.2831,-122.1554C277.2831,-144.3519 277.2831,-179 277.2831,-179 277.2831,-179 843.9595,-179 843.9595,-179"/>
<polygon fill="#000000" stroke="#000000" points="843.9595,-182.5001 853.9595,-179 843.9595,-175.5001 843.9595,-182.5001"/>
</g>
<!-- RouterModule.forRoot(args) -->
<g id="node12" class="node">
<title>RouterModule.forRoot(args)</title>
<polygon fill="#8dd3c7" stroke="#000000" points="201.8419,-122 198.8419,-126 177.8419,-126 174.8419,-122 24.1581,-122 24.1581,-86 201.8419,-86 201.8419,-122"/>
<text text-anchor="middle" x="113" y="-99.8" font-family="Times,serif" font-size="14.00" fill="#000000">RouterModule.forRoot(args)</text>
</g>
<!-- RouterModule.forRoot(args)&#45;&gt;AppModule -->
<g id="edge11" class="edge">
<title>RouterModule.forRoot(args)&#45;&gt;AppModule</title>
<path fill="none" stroke="#000000" d="M113,-122.3228C113,-145.6602 113,-183 113,-183 113,-183 844.1793,-183 844.1793,-183"/>
<polygon fill="#000000" stroke="#000000" points="844.1794,-186.5001 854.1793,-183 844.1793,-179.5001 844.1794,-186.5001"/>
</g>
<!-- WrapperComponent -->
<g id="node14" class="node">
<title>WrapperComponent</title>
<polygon fill="#ffffb3" stroke="#000000" points="1347.2977,-122 1216.7023,-122 1216.7023,-86 1347.2977,-86 1347.2977,-122"/>
<text text-anchor="middle" x="1282" y="-99.8" font-family="Times,serif" font-size="14.00" fill="#000000">WrapperComponent</text>
</g>
<!-- WrapperComponent&#45;&gt;AppModule -->
<g id="edge13" class="edge">
<title>WrapperComponent&#45;&gt;AppModule</title>
<path fill="none" stroke="#000000" d="M1282,-122.2222C1282,-140.8285 1282,-167 1282,-167 1282,-167 947.6755,-167 947.6755,-167"/>
<polygon fill="#000000" stroke="#000000" points="947.6755,-163.5001 937.6755,-167 947.6755,-170.5001 947.6755,-163.5001"/>
</g>
<!-- ElabComponent -->
<g id="node15" class="node">
<title>ElabComponent</title>
<polygon fill="#ffffb3" stroke="#000000" points="1198.4902,-122 1091.5098,-122 1091.5098,-86 1198.4902,-86 1198.4902,-122"/>
<text text-anchor="middle" x="1145" y="-99.8" font-family="Times,serif" font-size="14.00" fill="#000000">ElabComponent</text>
</g>
<!-- ElabComponent&#45;&gt;AppModule -->
<g id="edge14" class="edge">
<title>ElabComponent&#45;&gt;AppModule</title>
<path fill="none" stroke="#000000" d="M1145,-122.0225C1145,-139.3734 1145,-163 1145,-163 1145,-163 947.677,-163 947.677,-163"/>
<polygon fill="#000000" stroke="#000000" points="947.677,-159.5001 937.677,-163 947.677,-166.5001 947.677,-159.5001"/>
</g>
</g>
</svg>
